<svg id="BL-Logo" xmlns="http://www.w3.org/2000/svg" viewBox="0 0 96.14 22.54"><defs><style>.cls-1{fill:red;}</style></defs><title>bl_logo</title><path class="cls-1" d="M61.53,19.46A2.22,2.22,0,0,0,60,17.3a2,2,0,0,0,1.2-1.87c0-1.73-1.23-2.49-2.92-2.49H55v9.24h3.46C60.27,22.18,61.53,21.2,61.53,19.46Zm-5.13-5.27h2c.9,0,1.47.47,1.47,1.27s-.57,1.27-1.47,1.27h-2Zm0,6.75v-3h2a1.52,1.52,0,1,1,0,3Z" transform="translate(-16.39 -12.75)"/><path class="cls-1" d="M68,19.64l.68,2.55h1.44l-2.58-9.24H65.74l-2.58,9.24h1.37l.68-2.55Zm-1.43-5,1.14,3.93H65.47Z" transform="translate(-16.39 -12.75)"/><path class="cls-1" d="M77,21.51a2.45,2.45,0,0,0,.72-1.81,2.64,2.64,0,0,0-.21-1.05A3.91,3.91,0,0,0,75.36,17a4.64,4.64,0,0,1-1.73-1,1.09,1.09,0,0,1-.22-.73A1.25,1.25,0,0,1,74.78,14a1.28,1.28,0,0,1,1.4,1.23h1.37a2.44,2.44,0,0,0-.65-1.66,2.85,2.85,0,0,0-2.09-.77,2.94,2.94,0,0,0-2.12.79A2.46,2.46,0,0,0,72,15.32a2.38,2.38,0,0,0,.26,1.15,3.32,3.32,0,0,0,1.81,1.34,3.8,3.8,0,0,1,2,1.31,1.24,1.24,0,0,1,.17.62,1.41,1.41,0,0,1-1.54,1.36,1.39,1.39,0,0,1-1.52-1.41H71.81a2.74,2.74,0,0,0,.79,1.94,3,3,0,0,0,2.1.69A3.19,3.19,0,0,0,77,21.51Z" transform="translate(-16.39 -12.75)"/><polygon class="cls-1" points="69.44 8.19 65.11 8.19 65.11 5.23 68.7 5.23 68.7 3.97 65.11 3.97 65.11 1.44 69.29 1.44 69.29 0.19 63.74 0.19 63.74 9.43 69.44 9.43 69.44 8.19"/><polygon class="cls-1" points="78.3 8.19 73.55 8.19 73.55 0.19 72.17 0.19 72.17 9.43 78.3 9.43 78.3 8.19"/><polygon class="cls-1" points="1.38 12.47 0 12.47 0 21.71 6.13 21.71 6.13 20.47 1.38 20.47 1.38 12.47"/><path class="cls-1" d="M26.39,25.23l-2.58,9.24h1.37l.68-2.55h2.83l.68,2.55h1.44l-2.58-9.24Zm-.27,5.57,1.14-3.93L28.4,30.8Z" transform="translate(-16.39 -12.75)"/><polygon class="cls-1" points="21.12 18.75 17.95 12.47 16.43 12.47 16.43 21.71 17.75 21.71 17.75 15.19 21.02 21.71 22.44 21.71 22.44 12.47 21.12 12.47 21.12 18.75"/><path class="cls-1" d="M52.84,29.25a4.67,4.67,0,0,1-1.73-1,1.1,1.1,0,0,1-.22-.73,1.25,1.25,0,0,1,1.37-1.22,1.27,1.27,0,0,1,1.4,1.23H55a2.44,2.44,0,0,0-.65-1.66,2.85,2.85,0,0,0-2.09-.77,2.94,2.94,0,0,0-2.12.79,2.46,2.46,0,0,0-.69,1.73,2.38,2.38,0,0,0,.26,1.15,3.32,3.32,0,0,0,1.81,1.34,3.8,3.8,0,0,1,2,1.31,1.24,1.24,0,0,1,.17.62,1.41,1.41,0,0,1-1.54,1.35A1.39,1.39,0,0,1,50.67,32H49.28a2.74,2.74,0,0,0,.79,1.94,3,3,0,0,0,2.1.69,3.2,3.2,0,0,0,2.27-.82A2.45,2.45,0,0,0,55.16,32,2.65,2.65,0,0,0,55,30.92,3.91,3.91,0,0,0,52.84,29.25Z" transform="translate(-16.39 -12.75)"/><polygon class="cls-1" points="53.32 16.25 50.3 16.25 50.3 12.47 48.92 12.47 48.92 21.71 50.3 21.71 50.3 17.51 53.32 17.51 53.32 21.71 54.7 21.71 54.7 12.47 53.32 12.47 53.32 16.25"/><path class="cls-1" d="M75.68,25.23l-2.58,9.24h1.37l.68-2.55H78l.68,2.55H80.1l-2.58-9.24Zm-.27,5.57,1.14-3.93L77.7,30.8Z" transform="translate(-16.39 -12.75)"/><polygon class="cls-1" points="65.73 21.71 67.11 21.71 67.11 17.62 69.92 17.62 69.92 16.37 67.11 16.37 67.11 13.72 70.57 13.72 70.57 12.47 65.73 12.47 65.73 21.71"/><polygon class="cls-1" points="72.05 13.72 74.47 13.72 74.47 21.71 75.86 21.71 75.86 13.72 78.3 13.72 78.3 12.47 72.05 12.47 72.05 13.72"/><path class="cls-1" d="M60.25,33.35c-1.19-.05-1.7-1.32-1.7-3.52s.51-3.48,1.7-3.48a1.13,1.13,0,0,1,1.29,1.15h1.38a2.34,2.34,0,0,0-2.64-2.42c-2.09,0-3.17,1.58-3.17,4.75s1.07,4.78,3.13,4.78A2.47,2.47,0,0,0,63,32H61.63C61.59,32.88,61.12,33.39,60.25,33.35Z" transform="translate(-16.39 -12.75)"/><path class="cls-1" d="M43.09,25.23H41.71v9.24h1.38c3.18,0,4.39-1.43,4.39-4.62S46.28,25.22,43.09,25.23Zm0,8V26.5c2.29,0,3.05.63,3.05,3.35S45.39,33.19,43.09,33.19Z" transform="translate(-16.39 -12.75)"/><polygon class="cls-1" points="84.01 12.47 83.27 22.54 85.41 19.56 86.81 22.53 88.22 19.56 90.36 22.53 89.2 12.47 84.01 12.47"/><path class="cls-1" d="M111.57,17h-.1a3.8,3.8,0,0,0-.5-1.12,1,1,0,1,0-1.33-1.35,5.11,5.11,0,0,0-1.08-.56.91.91,0,0,0,0-.25,1,1,0,0,0-1.9-.08h0a5.73,5.73,0,0,0-1.17.13,1,1,0,1,0-1.75.72,5.24,5.24,0,0,0-.94.77,1,1,0,1,0-1.08,1.56,8,8,0,0,0-.45,1.12.94.94,0,0,0-.26,0,1,1,0,0,0-.16,1.9c0,.24-.07.47-.09.73,0,.52-.08,1.07-.12,1.68h4.61L105,20.51c-.19-1.63,0-2.9.8-3.57a2.37,2.37,0,0,1,1.53-.59,1.94,1.94,0,0,1,.15,3.87s-.09,0-.06.07a1.67,1.67,0,0,0,2.09.59l.13,0a.75.75,0,0,0,.65.4.75.75,0,0,0,.54-1.28,3,3,0,0,0,.55-1.08l.15,0a1,1,0,0,0,0-1.91Z" transform="translate(-16.39 -12.75)"/><polygon class="cls-1" points="88.95 10.33 80.08 10.33 80.08 11.58 89.1 11.58 88.95 10.33"/></svg>