<?xml version="1.0" encoding="UTF-8" standalone="no"?>
<svg
   xmlns:dc="http://purl.org/dc/elements/1.1/"
   xmlns:cc="http://creativecommons.org/ns#"
   xmlns:rdf="http://www.w3.org/1999/02/22-rdf-syntax-ns#"
   xmlns:svg="http://www.w3.org/2000/svg"
   xmlns="http://www.w3.org/2000/svg"
   xml:space="preserve"
   viewBox="0 0 105.00157 37.650101"
   y="0"
   x="0"
   id="Calque_1"
   version="1.1"
   width="105.00157"
   height="37.650101"><metadata
     id="metadata847"><rdf:RDF><cc:Work
         rdf:about=""><dc:format>image/svg+xml</dc:format><dc:type
           rdf:resource="http://purl.org/dc/dcmitype/StillImage" /><dc:title></dc:title></cc:Work></rdf:RDF></metadata><defs
     id="defs845" /><style
     id="style2"
     type="text/css">.st0{fill:red}</style><g
     transform="matrix(0.5217,0,0,0.5217,-15.71149,-47.22217)"
     id="g20"><path
       id="polygon4"
       class="st0"
       d="m 78,109.9 v -9.8 H 39.7 v 21.6 h 11.4 v -11.8 z"
       style="fill:#ff0000" /><path
       id="polygon6"
       class="st0"
       d="M 51.1,143.3 V 131.5 H 39.7 V 153 H 78 v -9.7 z"
       style="fill:#ff0000" /><path
       id="rect8"
       class="st0"
       d="m 51.1,121.7 h 24.6 v 9.8 H 51.1 Z"
       style="fill:#ff0000" /><path
       id="path10"
       d="m 125.5,105 c -1.5,-1.5 -3.3,-2.6 -5.7,-3.5 -2.3,-0.9 -5.1,-1.3 -8.4,-1.3 H 87.8 V 153 h 11.4 v -21.6 h 12.2 c 3.3,0 6.1,-0.4 8.4,-1.3 2.3,-0.9 4.2,-2.1 5.7,-3.5 1.5,-1.5 2.5,-3.1 3.2,-5 0.7,-1.9 1,-3.8 1,-5.8 0,-2 -0.3,-3.9 -1,-5.8 -0.6,-1.9 -1.7,-3.6 -3.2,-5 z m -7.9,13.8 c -0.6,0.8 -1.3,1.4 -2.3,1.8 -0.9,0.4 -2,0.7 -3.3,0.9 -1.2,0.1 -2.5,0.2 -3.9,0.2 h -9 v -11.8 h 9 c 1.3,0 2.6,0.1 3.9,0.2 1.2,0.1 2.3,0.4 3.3,0.9 0.9,0.4 1.7,1 2.3,1.8 0.6,0.8 0.9,1.8 0.9,3 0,1.2 -0.3,2.3 -0.9,3 z"
       class="st0"
       style="fill:#ff0000" /><path
       id="polygon12"
       class="st0"
       d="m 183.5,153 h 38.3 v -9.7 h -26.9 v -43.2 h -11.4 z"
       style="fill:#ff0000" /><path
       id="polygon14"
       class="st0"
       d="m 175.3,109.9 v -9.8 H 137 v 21.6 h 11.4 v -11.8 z"
       style="fill:#ff0000" /><path
       id="rect16"
       class="st0"
       d="m 137,131.5 h 11.4 v 21.6 H 137 Z"
       style="fill:#ff0000" /><path
       id="rect18"
       class="st0"
       d="M 148.4,121.7 H 173 v 9.8 h -24.6 z"
       style="fill:#ff0000" /></g></svg>