<svg xmlns="http://www.w3.org/2000/svg" xmlns:xlink="http://www.w3.org/1999/xlink" xmlns:a="http://ns.adobe.com/AdobeSVGViewerExtensions/3.0/" version="1.1" x="0px" y="0px" width="206px" height="74px" viewBox="0 0 206 74" overflow="visible" enable-background="new 0 0 206 74" xml:space="preserve"><defs/><path fill="#1D1D1B" d="M13.177 16.798h11.215v19.255c0 6.588-4.979 9.803-12.587 9.803C5.175 45.856 0 42.877 0 37.112v-1.373 h9.491v0.588c0 1.294 0.587 2.157 1.685 2.157c1.607 0 2.001-1.059 2.001-2.98V16.798z"/><path fill="#1D1D1B" d="M54.901 35.623c0 6.823-4.902 10.234-13.452 10.234c-8.548 0-13.45-3.411-13.45-10.234V16.798h11.214v18.353 c0 2.234 1.06 3.097 2.235 3.097c1.176 0 2.236-0.862 2.236-3.097V16.798h11.216V35.623z"/><path fill="#1D1D1B" d="M58.704 16.798h16.746c6.078 0 9.646 1.843 9.646 7.177c0 3.253-1.372 5.725-5.608 6.744v0.079 c2.746 0.235 4.236 1.451 4.784 3.607c0.628 2.431 0.549 6.432 1.844 10.706h-10.98c-0.667-2.117-1.021-5.687-1.412-8.118 c-0.236-1.411-0.941-1.96-2.745-1.96h-1.295v10.078h-10.98V16.798z M70.625 28.603c2.158 0 3.726-0.745 3.726-2.863 c0-2.078-1.451-2.509-3.646-2.509h-1.021v5.373H70.625z"/><path fill="#1D1D1B" d="M94.743 16.798h14.548l9.097 28.313h-11.607l-1.098-4.549h-8.118l-1.137 4.549H85.685L94.743 16.798z M104.037 33.661l-2.236-10.666h-0.079l-2.469 10.666H104.037z"/><path fill="#1D1D1B" d="M173.995 34.642c0 7.804-6.235 11.215-13.254 11.215c-9.921 0-14.51-6.04-14.51-15.019 c-0.274-8.824 4.98-14.785 14.548-14.785c7.137 0 13.177 2.902 13.216 11.215h-10.273c-0.157-3.215-1.334-3.842-2.708-3.842 c-2.901 0-3.176 2.98-3.176 7.53c0 4.311 0.236 7.528 3.06 7.528c1.451 0 2.431-0.863 2.588-3.843H173.995z"/><path fill="#1D1D1B" d="M192.975 34.681h-4.784v10.43h-11.216V16.798h11.216v9.569h4.784v-9.569h11.215v28.313h-11.215V34.681z"/><polygon fill="#FFFFFF" points="141.914,45.026 122.226,45.035 122.226,25.341 141.915,25.333"/><path fill="#E53328" d="M141.915 24.792l-19.99 0.008v20.296l20.29-0.008l0.001-20.296H141.915z M141.613 25.394 c0 0.574-0.001 18.516-0.001 19.091c-0.574 0-18.51 0.009-19.085 0.009c0-0.575 0-18.517 0-19.092 C123.1 25.402 141.039 25.394 141.613 25.394z"/><rect x="132.242" y="30.698" fill="#E53328" width="9.685" height="2.812"/><rect x="132.242" y="36.318" fill="#E53328" width="9.685" height="2.817"/><rect x="132.242" y="41.947" fill="#E53328" width="9.685" height="2.811"/><rect x="132.242" y="25.057" fill="#E53328" width="9.685" height="2.808"/><path fill="#E53328" d="M128.742 29.137c-0.215-2.177-1.216-3.068-2.819-3.068c-1.608 0.002-2.43 1.206-2.43 2.385 c0 0.732 0.4 1.759 1.433 1.759c1.033-0.001 1.388-0.679 1.388-1.219c0-0.532-0.477-0.936-0.904-0.936 c-0.426 0-0.705 0.191-0.705 0.191c0.107-0.753 0.682-0.894 1.039-0.894c0.531 0 1.242 0.355 1.242 1.713 c0 0.425-0.186 2.04-0.463 4.058h2.7C128.991 31.301 128.803 29.778 128.742 29.137z"/><path fill="#E53328" d="M125.005 43.922l1.785-3.516l1.089 3.347l1.03-3.369l1.835 3.546c0 0-0.671-4.291-1.17-8.169l-3.399 0.001 C125.629 39.715 125.005 43.922 125.005 43.922z"/><path fill="#E53328" d="M130.467 34.228v0.495h-5.17l-0.001-0.49L130.467 34.228z"/><path fill="#E53328" d="M129.918 35.005v0.485l-4.084 0.002v-0.489L129.918 35.005z"/><path fill="#E53328" d="M129.918 33.429v0.484l-4.084 0.002v-0.487H129.918z"/><path fill="#1D1D1B" d="M0.904 52.663h4.55c1.652 0 2.622 0.501 2.622 1.949c0 0.887-0.373 1.558-1.523 1.836v0.02 c0.745 0.062 1.151 0.395 1.299 0.979C8.022 58.108 8 59.194 8.353 60.358H5.369c-0.181-0.575-0.277-1.546-0.383-2.208 c-0.064-0.383-0.256-0.531-0.747-0.531H3.888v2.739H0.904V52.663z M4.144 55.87c0.586 0 1.013-0.203 1.013-0.775 c0-0.565-0.395-0.685-0.992-0.685H3.888v1.46H4.144z"/><path fill="#1D1D1B" d="M9.152 52.663h5.849v2.005h-2.929v0.82h2.707v2.001h-2.707v0.864h3.026v2.005H9.152V52.663z M11.699 50.318 h2.472l-1.641 1.813h-1.876L11.699 50.318z"/><path fill="#1D1D1B" d="M16.036 52.663h4.476c1.854 0 2.729 1.076 2.729 2.525c0 1.533-1.003 2.579-3.155 2.579h-1.001v2.591h-3.047 V52.663z M19.231 56.021c0.789 0 1.087-0.288 1.087-0.833c0-0.543-0.255-0.778-0.917-0.778h-0.319v1.611H19.231z"/><path fill="#1D1D1B" d="M31.348 57.777c0 1.855-1.333 2.782-3.655 2.782c-2.323 0-3.655-0.927-3.655-2.782v-5.114h3.048v4.987 c0 0.607 0.288 0.842 0.607 0.842c0.32 0 0.607-0.234 0.607-0.842v-4.987h3.047V57.777z"/><path fill="#1D1D1B" d="M32.553 52.663h4.571c1.662 0 2.471 0.704 2.471 1.993c0 0.745-0.309 1.408-1.449 1.673v0.022 c1.182 0.159 1.651 0.98 1.651 1.799c0 1.32-1.034 2.208-2.951 2.208h-4.294V52.663z M35.407 54.305v1.459h0.405 c0.703 0 0.927-0.318 0.927-0.768c0-0.511-0.331-0.691-0.937-0.691H35.407z M35.407 58.716h0.427c0.747 0 1.043-0.243 1.043-0.809 c0-0.471-0.362-0.695-1.075-0.695h-0.396V58.716z"/><path fill="#1D1D1B" d="M40.799 52.663h3.048v5.627h2.802v2.068h-5.851V52.663z"/><path fill="#1D1D1B" d="M47.47 52.663h3.047v7.695H47.47V52.663z"/><path fill="#1D1D1B" d="M59.692 60.358h-1.918c-0.257 0-0.607 0.042-1.001 0.095c-0.406 0.054-0.853 0.106-1.3 0.106 c-2.654 0-3.975-1.651-3.975-4.049c0-2.398 1.321-4.049 3.975-4.049c2.599 0 3.911 1.501 3.911 3.867 c0 0.958-0.299 1.567-0.768 2.15h1.077V60.358z M55.473 58.556c0.468 0 0.82-0.266 0.82-2.045c0-1.737-0.33-2.046-0.82-2.046 c-0.491 0-0.821 0.309-0.821 2.046C54.651 58.29 55.003 58.556 55.473 58.556z"/><path fill="#1D1D1B" d="M67.684 57.777c0 1.855-1.332 2.782-3.654 2.782c-2.324 0-3.656-0.927-3.656-2.782v-5.114h3.048v4.987 c0 0.607 0.288 0.842 0.608 0.842c0.319 0 0.607-0.234 0.607-0.842v-4.987h3.047V57.777z"/><path fill="#1D1D1B" d="M68.888 52.663h5.85v2.005h-2.93v0.82h2.707v2.001h-2.707v0.864h3.026v2.005h-5.946V52.663z"/><path fill="#1D1D1B" d="M79.628 52.663h5.851v2.005h-2.93v0.82h2.706v2.001h-2.706v0.864h3.026v2.005h-5.947V52.663z"/><path fill="#1D1D1B" d="M87.897 54.73H86v-2.067h6.842v2.067h-1.897v5.628h-3.048V54.73z"/><path fill="#1D1D1B" d="M104.713 57.512c0 2.121-1.696 3.048-3.603 3.048c-2.696 0-3.943-1.643-3.943-4.081 c-0.074-2.398 1.354-4.017 3.954-4.017c1.938 0 3.581 0.787 3.592 3.047h-2.792c-0.042-0.873-0.363-1.044-0.735-1.044 c-0.79 0-0.864 0.809-0.864 2.046c0 1.171 0.065 2.045 0.833 2.045c0.394 0 0.66-0.234 0.702-1.044H104.713z"/><path fill="#1D1D1B" d="M107.408 52.663h3.953l2.472 7.695h-3.154l-0.298-1.238h-2.207l-0.309 1.238h-2.919L107.408 52.663z M109.933 57.245l-0.606-2.897h-0.022l-0.67 2.897H109.933z"/><path fill="#1D1D1B" d="M114.344 52.663H118l1.631 4.658h0.021v-4.658h2.472v7.695h-3.654l-1.631-4.691h-0.021v4.691h-2.473V52.663z "/><path fill="#1D1D1B" d="M124.766 54.73h-1.896v-2.067h6.84v2.067h-1.896v5.628h-3.048V54.73z"/><path fill="#1D1D1B" d="M133.963 52.462c2.655 0 3.976 1.65 3.976 4.049c0 2.397-1.321 4.049-3.976 4.049 c-2.653 0-3.973-1.651-3.973-4.049C129.99 54.112 131.31 52.462 133.963 52.462z M133.963 58.556c0.47 0 0.822-0.266 0.822-2.045 c0-1.737-0.331-2.046-0.822-2.046c-0.489 0-0.82 0.309-0.82 2.046C133.143 58.29 133.495 58.556 133.963 58.556z"/><path fill="#1D1D1B" d="M138.918 52.663h3.655l1.63 4.658h0.022v-4.658h2.472v7.695h-3.655l-1.631-4.691h-0.021v4.691h-2.472V52.663 z"/><path fill="#1D1D1B" d="M151.812 52.663h3.612c3.079 0 4.06 1.652 4.06 3.932c0 2.322-1.512 3.764-3.879 3.764h-3.793V52.663z M154.796 58.608h0.297c0.49 0 0.778-0.181 0.971-0.489c0.202-0.32 0.265-0.863 0.265-1.608c0-0.747-0.063-1.289-0.265-1.61 c-0.192-0.308-0.48-0.49-0.971-0.49h-0.297V58.608z"/><path fill="#1D1D1B" d="M167.721 57.777c0 1.855-1.332 2.782-3.655 2.782c-2.323 0-3.655-0.927-3.655-2.782v-5.114h3.048v4.987 c0 0.607 0.288 0.842 0.607 0.842c0.32 0 0.607-0.234 0.607-0.842v-4.987h3.048V57.777z"/><path fill="#1D1D1B" d="M175.789 52.663h3.046v5.233c0 1.789-1.353 2.663-3.421 2.663c-1.8 0-3.207-0.81-3.207-2.375v-0.374h2.579 v0.159c0 0.352 0.16 0.586 0.458 0.586c0.437 0 0.544-0.287 0.544-0.811V52.663z"/><path fill="#1D1D1B" d="M186.913 57.777c0 1.855-1.333 2.782-3.656 2.782c-2.323 0-3.655-0.927-3.655-2.782v-5.114h3.048v4.987 c0 0.607 0.288 0.842 0.607 0.842c0.32 0 0.608-0.234 0.608-0.842v-4.987h3.048V57.777z"/><path fill="#1D1D1B" d="M187.945 52.663h4.549c1.653 0 2.622 0.501 2.622 1.949c0 0.887-0.373 1.558-1.523 1.836v0.02 c0.745 0.062 1.151 0.395 1.3 0.979c0.17 0.661 0.149 1.747 0.5 2.911h-2.983c-0.182-0.575-0.277-1.546-0.384-2.208 c-0.063-0.383-0.256-0.531-0.746-0.531h-0.352v2.739h-2.983V52.663z M191.185 55.87c0.585 0 1.012-0.203 1.012-0.775 c0-0.565-0.394-0.685-0.991-0.685h-0.277v1.46H191.185z"/><path fill="#1D1D1B" d="M197.908 52.663h3.954l2.472 7.695h-3.154l-0.297-1.238h-2.207l-0.31 1.238h-2.918L197.908 52.663z M200.434 57.245l-0.607-2.897h-0.021l-0.671 2.897H200.434z"/><rect fill="none" width="206" height="74"/></svg>