<?xml version="1.0" encoding="UTF-8" standalone="no"?>
<!-- Created with Inkscape (http://www.inkscape.org/) -->

<svg
   xmlns:dc="http://purl.org/dc/elements/1.1/"
   xmlns:cc="http://creativecommons.org/ns#"
   xmlns:rdf="http://www.w3.org/1999/02/22-rdf-syntax-ns#"
   xmlns:svg="http://www.w3.org/2000/svg"
   xmlns="http://www.w3.org/2000/svg"
   xmlns:sodipodi="http://sodipodi.sourceforge.net/DTD/sodipodi-0.dtd"
   xmlns:inkscape="http://www.inkscape.org/namespaces/inkscape"
   width="210mm"
   height="297mm"
   viewBox="0 0 744.09448819 1052.3622047"
   id="svg2"
   version="1.1"
   inkscape:version="0.91 r13725"
   sodipodi:docname="1_1_responsive.svg"
   inkscape:export-filename="C:\travail\gmf_website\content\images\1_1_responsive.png"
   inkscape:export-xdpi="44.999992"
   inkscape:export-ydpi="44.999992">
  <defs
     id="defs4" />
  <sodipodi:namedview
     id="base"
     pagecolor="#ffffff"
     bordercolor="#666666"
     borderopacity="1.0"
     inkscape:pageopacity="0.0"
     inkscape:pageshadow="2"
     inkscape:zoom="1.4"
     inkscape:cx="57.786487"
     inkscape:cy="676.12772"
     inkscape:document-units="px"
     inkscape:current-layer="layer1"
     showgrid="false"
     inkscape:snap-bbox="true"
     inkscape:snap-bbox-edge-midpoints="true"
     inkscape:bbox-nodes="true"
     inkscape:object-paths="true"
     inkscape:snap-intersection-paths="true"
     inkscape:snap-smooth-nodes="true"
     inkscape:bbox-paths="true"
     inkscape:window-width="1920"
     inkscape:window-height="1018"
     inkscape:window-x="-8"
     inkscape:window-y="-8"
     inkscape:window-maximized="1"
     inkscape:snap-global="false" />
  <metadata
     id="metadata7">
    <rdf:RDF>
      <cc:Work
         rdf:about="">
        <dc:format>image/svg+xml</dc:format>
        <dc:type
           rdf:resource="http://purl.org/dc/dcmitype/StillImage" />
        <dc:title />
      </cc:Work>
    </rdf:RDF>
  </metadata>
  <g
     inkscape:label="Calque 1"
     inkscape:groupmode="layer"
     id="layer1">
    <g
       id="g4210"
       transform="matrix(0.28583591,0,0,0.28583591,182.36631,318.98048)">
      <path
         style="color:#000000;clip-rule:nonzero;display:inline;overflow:visible;visibility:visible;opacity:1;isolation:auto;mix-blend-mode:normal;color-interpolation:sRGB;color-interpolation-filters:linearRGB;solid-color:#000000;solid-opacity:1;fill:#808080;fill-opacity:1;fill-rule:evenodd;stroke:none;stroke-width:2.70000005;stroke-linecap:butt;stroke-linejoin:miter;stroke-miterlimit:4;stroke-dasharray:none;stroke-dashoffset:0;stroke-opacity:1;color-rendering:auto;image-rendering:auto;shape-rendering:auto;text-rendering:auto;enable-background:accumulate"
         d="m 353.19035,420.23228 0,8.86328 c -0.65492,8.52791 -7.36905,15.27233 -15.82812,15.88477 l 15.82812,0 50.55274,0 15.82812,0 c -8.46932,-0.61318 -15.18714,-7.37344 -15.82812,-15.91602 l 0,-8.83203 -0.0645,0 -50.42382,0 -0.0645,0 z"
         id="rect4167"
         inkscape:connector-curvature="0" />
      <rect
         style="color:#000000;clip-rule:nonzero;display:inline;overflow:visible;visibility:visible;opacity:1;isolation:auto;mix-blend-mode:normal;color-interpolation:sRGB;color-interpolation-filters:linearRGB;solid-color:#000000;solid-opacity:1;fill:#808080;fill-opacity:1;fill-rule:evenodd;stroke:none;stroke-width:2.70000005;stroke-linecap:butt;stroke-linejoin:miter;stroke-miterlimit:4;stroke-dasharray:none;stroke-dashoffset:0;stroke-opacity:1;color-rendering:auto;image-rendering:auto;shape-rendering:auto;text-rendering:auto;enable-background:accumulate"
         id="rect4165"
         width="100.51018"
         height="28.031733"
         x="318.21161"
         y="382.91483" />
      <path
         style="color:#000000;clip-rule:nonzero;display:inline;overflow:visible;visibility:visible;opacity:1;isolation:auto;mix-blend-mode:normal;color-interpolation:sRGB;color-interpolation-filters:linearRGB;solid-color:#000000;solid-opacity:1;fill:#808080;fill-opacity:1;fill-rule:evenodd;stroke:none;stroke-width:2.70000005;stroke-linecap:butt;stroke-linejoin:miter;stroke-miterlimit:4;stroke-dasharray:none;stroke-dashoffset:0;stroke-opacity:1;color-rendering:auto;image-rendering:auto;shape-rendering:auto;text-rendering:auto;enable-background:accumulate"
         d="m 265.35631,339.32645 c -5.54,0 -10,4.46 -10,10 l 0,87.32227 c 0,5.54 4.46,10 10,10 l 38.57227,0 c 5.54,0 10,-4.46 10,-10 l 0,-87.32227 c 0,-5.54 -4.46,-10 -10,-10 l -38.57227,0 z m -4.10546,18.75 47.5,0 0,71.78516 -47.5,0 0,-71.78516 z"
         id="rect4200"
         inkscape:connector-curvature="0" />
      <path
         style="color:#000000;clip-rule:nonzero;display:inline;overflow:visible;visibility:visible;opacity:1;isolation:auto;mix-blend-mode:normal;color-interpolation:sRGB;color-interpolation-filters:linearRGB;solid-color:#000000;solid-opacity:1;fill:#808080;fill-opacity:1;fill-rule:evenodd;stroke:none;stroke-width:2.70000005;stroke-linecap:butt;stroke-linejoin:miter;stroke-miterlimit:4;stroke-dasharray:none;stroke-dashoffset:0;stroke-opacity:1;color-rendering:auto;image-rendering:auto;shape-rendering:auto;text-rendering:auto;enable-background:accumulate"
         d="m 434.20592,296.4163 c -6.15587,0 -11.11132,4.95546 -11.11132,11.11133 l 0,127.41992 c 0,6.15587 4.95545,11.11133 11.11132,11.11133 l 89.91993,0 c 6.15587,0 11.11132,-4.95546 11.11132,-11.11133 l 0,-127.41992 c 0,-6.15587 -4.95545,-11.11133 -11.11132,-11.11133 l -89.91993,0 z m -2.77734,10.94531 96.42773,0 0,115 -96.42773,0 0,-115 z"
         id="rect4145"
         inkscape:connector-curvature="0" />
      <path
         id="rect4150"
         d="m 263.78906,250.58398 c -3.84742,0 -6.94336,3.0979 -6.94336,6.94532 0,0.0184 0.002,0.0363 0.002,0.0547 -2e-4,0.003 -0.002,0.005 -0.002,0.008 l 0,76.70898 c 0,0.07 0.055,0.12695 0.125,0.12695 l 14.14258,0 c 0.07,0 0.12695,-0.057 0.12695,-0.12695 l 0,-69.82617 215.16211,0 0,27.90625 c 0,0.07 0.057,0.125 0.12696,0.125 l 14.64648,0 c 0.07,0 0.12695,-0.055 0.12695,-0.125 l 0,-34.85156 c 0,-3.84742 -3.09789,-6.94532 -6.94531,-6.94532 l -230.56836,0 z"
         style="color:#000000;clip-rule:nonzero;display:inline;overflow:visible;visibility:visible;opacity:1;isolation:auto;mix-blend-mode:normal;color-interpolation:sRGB;color-interpolation-filters:linearRGB;solid-color:#000000;solid-opacity:1;fill:#808080;fill-opacity:1;fill-rule:evenodd;stroke:none;stroke-width:2.70000005;stroke-linecap:butt;stroke-linejoin:miter;stroke-miterlimit:4;stroke-dasharray:none;stroke-dashoffset:0;stroke-opacity:1;color-rendering:auto;image-rendering:auto;shape-rendering:auto;text-rendering:auto;enable-background:accumulate"
         inkscape:connector-curvature="0" />
    </g>
  </g>
</svg>
