<?xml version="1.0" encoding="UTF-8" standalone="no"?>
<!-- Created with Inkscape (http://www.inkscape.org/) -->

<svg
   xmlns:dc="http://purl.org/dc/elements/1.1/"
   xmlns:cc="http://creativecommons.org/ns#"
   xmlns:rdf="http://www.w3.org/1999/02/22-rdf-syntax-ns#"
   xmlns:svg="http://www.w3.org/2000/svg"
   xmlns="http://www.w3.org/2000/svg"
   xmlns:sodipodi="http://sodipodi.sourceforge.net/DTD/sodipodi-0.dtd"
   xmlns:inkscape="http://www.inkscape.org/namespaces/inkscape"
   width="210mm"
   height="297mm"
   viewBox="0 0 744.09448819 1052.3622047"
   id="svg2"
   version="1.1"
   inkscape:version="0.91 r13725"
   sodipodi:docname="1_4_query.svg">
  <defs
     id="defs4" />
  <sodipodi:namedview
     id="base"
     pagecolor="#ffffff"
     bordercolor="#666666"
     borderopacity="1.0"
     inkscape:pageopacity="0.0"
     inkscape:pageshadow="2"
     inkscape:zoom="0.70710678"
     inkscape:cx="280.93026"
     inkscape:cy="754.94916"
     inkscape:document-units="px"
     inkscape:current-layer="layer1"
     showgrid="false"
     inkscape:snap-bbox="true"
     inkscape:snap-bbox-edge-midpoints="false"
     inkscape:bbox-nodes="false"
     inkscape:object-paths="true"
     inkscape:snap-intersection-paths="true"
     inkscape:snap-smooth-nodes="true"
     inkscape:bbox-paths="true"
     inkscape:window-width="1920"
     inkscape:window-height="1018"
     inkscape:window-x="-8"
     inkscape:window-y="-8"
     inkscape:window-maximized="1"
     inkscape:snap-global="false"
     showguides="false"
     inkscape:snap-nodes="true"
     inkscape:object-nodes="true" />
  <metadata
     id="metadata7">
    <rdf:RDF>
      <cc:Work
         rdf:about="">
        <dc:format>image/svg+xml</dc:format>
        <dc:type
           rdf:resource="http://purl.org/dc/dcmitype/StillImage" />
        <dc:title />
      </cc:Work>
    </rdf:RDF>
  </metadata>
  <g
     inkscape:label="Calque 1"
     inkscape:groupmode="layer"
     id="layer1">
    <g
       id="g4417"
       transform="matrix(1.2012012,0,0,1.2012012,-56.97175,-325.47167)"
       inkscape:export-filename="C:\travail\gmf_website\content\images\1_4_query.png"
       inkscape:export-xdpi="16.49"
       inkscape:export-ydpi="16.49">
      <path
         sodipodi:nodetypes="scccscccsssscccccccsccc"
         inkscape:connector-curvature="0"
         id="path4331"
         d="m 379.74805,329.79102 c -50.19863,1.3e-4 -90.89258,34.13838 -90.89258,76.25 0.002,15.32507 5.50792,30.29411 15.80078,42.95507 0.2544,-1.4121 0.49509,-2.82036 0.7207,-4.2207 -0.22364,1.40028 -0.4662,2.80805 -0.7207,4.2207 -2.99658,16.63332 -8.12138,33.92698 -15.34375,47.29493 19.64244,-3.26354 39.2624,-8.56145 60.03906,-18.47461 9.75404,2.93417 20.03436,4.44751 30.39649,4.47461 50.19863,-1.3e-4 90.89257,-34.13838 90.89257,-76.25 0,-42.11162 -40.69394,-76.24987 -90.89257,-76.25 z m -0.10938,17.5 c 40.23803,-1.3e-4 72.85747,26.38102 72.85742,58.92382 6e-5,32.54281 -32.61938,58.92396 -72.85742,58.92383 -9.67362,-0.002 -19.24982,-1.56258 -28.16992,-4.58984 l -2.86776,-0.75475 c -10.57914,6.06472 -20.53456,9.84051 -31.99357,13.786 2.95426,-9.56137 5.79359,-19.32178 6.87891,-29.58399 l -2.94141,-3.4375 c -8.91807,-10.00121 -13.73199,-22.01312 -13.76367,-34.34375 -5e-5,-32.5428 32.61939,-58.92395 72.85742,-58.92382 z m -73.62695,93.26757 c -0.19292,1.38544 -0.40493,2.78394 -0.62891,4.1875 0.22612,-1.40471 0.43592,-2.80152 0.62891,-4.1875 z"
         style="color:#000000;clip-rule:nonzero;display:inline;overflow:visible;visibility:visible;opacity:1;isolation:auto;mix-blend-mode:normal;color-interpolation:sRGB;color-interpolation-filters:linearRGB;solid-color:#000000;solid-opacity:1;fill:#808080;fill-opacity:1;fill-rule:evenodd;stroke:none;stroke-width:7.5;stroke-linecap:round;stroke-linejoin:miter;stroke-miterlimit:4;stroke-dasharray:none;stroke-dashoffset:0;stroke-opacity:1;color-rendering:auto;image-rendering:auto;shape-rendering:auto;text-rendering:auto;enable-background:accumulate" />
      <g
         transform="translate(194.39245,-1.1710838)"
         id="text4410"
         style="font-style:normal;font-weight:normal;font-size:49.31561279px;line-height:125%;font-family:sans-serif;letter-spacing:0px;word-spacing:0px;fill:#808080;fill-opacity:1;stroke:none;stroke-width:1px;stroke-linecap:butt;stroke-linejoin:miter;stroke-opacity:1">
        <path
           inkscape:connector-curvature="0"
           id="path4415"
           style="font-style:normal;font-variant:normal;font-weight:bold;font-stretch:normal;font-size:110.96012878px;font-family:'DejaVu Sans';-inkscape-font-specification:'DejaVu Sans Bold';fill:#808080;fill-opacity:1"
           d="m 195.00411,421.89351 -19.55889,0 0,-2.65481 q 0,-4.44274 1.78793,-7.85606 1.78793,-3.46751 7.53099,-8.77712 l 3.4675,-3.14243 q 3.08825,-2.81734 4.49692,-5.30961 1.46285,-2.49227 1.46285,-4.98454 0,-3.79258 -2.60062,-5.90559 -2.60063,-2.16719 -7.26009,-2.16719 -4.38856,0 -9.48146,1.84211 -5.09289,1.78793 -10.61923,5.36379 l 0,-17.01244 q 6.55575,-2.27555 11.97373,-3.35914 5.41797,-1.0836 10.45669,-1.0836 13.21986,0 20.15487,5.41798 6.935,5.36379 6.935,15.71213 0,5.30961 -2.11301,9.53563 -2.11301,4.17184 -7.2059,8.99384 l -3.46751,3.08825 q -3.68422,3.35914 -4.82199,5.41797 -1.13778,2.00465 -1.13778,4.44274 l 0,2.43809 z m -19.55889,8.0186 19.55889,0 0,19.28799 -19.55889,0 0,-19.28799 z" />
      </g>
    </g>
  </g>
</svg>
