<?xml version="1.0" encoding="UTF-8" standalone="no"?>
<!-- Created with Inkscape (http://www.inkscape.org/) -->

<svg
   xmlns:dc="http://purl.org/dc/elements/1.1/"
   xmlns:cc="http://creativecommons.org/ns#"
   xmlns:rdf="http://www.w3.org/1999/02/22-rdf-syntax-ns#"
   xmlns:svg="http://www.w3.org/2000/svg"
   xmlns="http://www.w3.org/2000/svg"
   xmlns:sodipodi="http://sodipodi.sourceforge.net/DTD/sodipodi-0.dtd"
   xmlns:inkscape="http://www.inkscape.org/namespaces/inkscape"
   width="210mm"
   height="297mm"
   viewBox="0 0 744.09448819 1052.3622047"
   id="svg2"
   version="1.1"
   inkscape:version="0.91 r13725"
   sodipodi:docname="1_6_print.svg">
  <defs
     id="defs4" />
  <sodipodi:namedview
     id="base"
     pagecolor="#ffffff"
     bordercolor="#666666"
     borderopacity="1.0"
     inkscape:pageopacity="0.0"
     inkscape:pageshadow="2"
     inkscape:zoom="0.70710678"
     inkscape:cx="122.54906"
     inkscape:cy="720.39848"
     inkscape:document-units="px"
     inkscape:current-layer="layer1"
     showgrid="false"
     inkscape:snap-bbox="true"
     inkscape:snap-bbox-edge-midpoints="false"
     inkscape:bbox-nodes="false"
     inkscape:object-paths="true"
     inkscape:snap-intersection-paths="true"
     inkscape:snap-smooth-nodes="true"
     inkscape:bbox-paths="true"
     inkscape:window-width="1920"
     inkscape:window-height="1018"
     inkscape:window-x="-8"
     inkscape:window-y="-8"
     inkscape:window-maximized="1"
     inkscape:snap-global="true"
     showguides="false"
     inkscape:snap-nodes="true"
     inkscape:object-nodes="true" />
  <metadata
     id="metadata7">
    <rdf:RDF>
      <cc:Work
         rdf:about="">
        <dc:format>image/svg+xml</dc:format>
        <dc:type
           rdf:resource="http://purl.org/dc/dcmitype/StillImage" />
        <dc:title />
      </cc:Work>
    </rdf:RDF>
  </metadata>
  <g
     inkscape:label="Calque 1"
     inkscape:groupmode="layer"
     id="layer1">
    <g
       id="g4613"
       transform="translate(22.273864,-372.64528)"
       inkscape:export-filename="C:\travail\gmf_website\content\images\1_6_print.png"
       inkscape:export-xdpi="18.09"
       inkscape:export-ydpi="18.09">
      <path
         id="rect4513"
         d="m 308.65234,596.98633 c -12.14385,0 -21.91992,9.77607 -21.91992,21.91992 l 0,3.18164 0,3.18164 0,21.91992 -9.54687,0 c -11.36038,0 -20.50586,9.14549 -20.50586,20.50586 l 0,35.00977 c 0,11.36038 9.14548,20.50586 20.50586,20.50586 l 9.54687,0 0,16.66992 0,2.41992 0,2.41992 c 0,9.23609 9.77607,16.67188 21.91992,16.67188 l 95.10547,0 c 12.14385,0 21.91992,-7.43579 21.91992,-16.67188 l 0,-2.41992 0,-2.41992 0,-16.66992 9.54688,0 c 11.36038,0 20.50586,-9.14548 20.50586,-20.50586 l 0,-35.00977 c 0,-11.36037 -9.14548,-20.50586 -20.50586,-20.50586 l -9.54688,0 0,-21.91992 0,-3.18164 0,-3.18164 c 0,-12.14385 -9.77607,-21.91992 -21.91992,-21.91992 l -95.10547,0 z m -0.58398,11.66601 96.27344,0 c 3.20218,0 5.77929,2.57907 5.77929,5.78125 l 0,12.95703 0,4.11915 0,15.67968 -107.83203,0 0,-15.67968 0,-4.11915 0,-12.95703 c 0,-3.20218 2.57712,-5.78125 5.7793,-5.78125 z m 113.89844,51.61914 a 11.490485,9.2513132 0 0 1 11.49023,9.25196 11.490485,9.2513132 0 0 1 -11.49023,9.25 11.490485,9.2513132 0 0 1 -11.49219,-9.25 11.490485,9.2513132 0 0 1 11.49219,-9.25196 z m -119.50196,31.64258 107.83399,0 0,20.18164 0,16.23438 0,15.88086 c 0,2.5621 -2.06289,4.625 -4.625,4.625 l -98.58399,0 c -2.5621,0 -4.625,-2.0629 -4.625,-4.625 l 0,-15.88086 0,-16.23438 0,-20.18164 z"
         style="color:#000000;clip-rule:nonzero;display:inline;overflow:visible;visibility:visible;opacity:1;isolation:auto;mix-blend-mode:normal;color-interpolation:sRGB;color-interpolation-filters:linearRGB;solid-color:#000000;solid-opacity:1;fill:#808080;fill-opacity:1;fill-rule:evenodd;stroke:none;stroke-width:7.5;stroke-linecap:round;stroke-linejoin:miter;stroke-miterlimit:4;stroke-dasharray:none;stroke-dashoffset:0;stroke-opacity:1;color-rendering:auto;image-rendering:auto;shape-rendering:auto;text-rendering:auto;enable-background:accumulate"
         inkscape:connector-curvature="0" />
      <rect
         ry="0"
         rx="0"
         y="704.69421"
         x="317.84448"
         height="12.538582"
         width="76.867531"
         id="rect4596"
         style="color:#000000;clip-rule:nonzero;display:inline;overflow:visible;visibility:visible;opacity:1;isolation:auto;mix-blend-mode:normal;color-interpolation:sRGB;color-interpolation-filters:linearRGB;solid-color:#000000;solid-opacity:1;fill:#808080;fill-opacity:1;fill-rule:evenodd;stroke:none;stroke-width:7.5;stroke-linecap:round;stroke-linejoin:miter;stroke-miterlimit:4;stroke-dasharray:none;stroke-dashoffset:0;stroke-opacity:1;color-rendering:auto;image-rendering:auto;shape-rendering:auto;text-rendering:auto;enable-background:accumulate" />
      <rect
         ry="0"
         rx="0"
         y="723.85779"
         x="317.84448"
         height="12.538582"
         width="53.867531"
         id="rect4596-4"
         style="color:#000000;clip-rule:nonzero;display:inline;overflow:visible;visibility:visible;opacity:1;isolation:auto;mix-blend-mode:normal;color-interpolation:sRGB;color-interpolation-filters:linearRGB;solid-color:#000000;solid-opacity:1;fill:#808080;fill-opacity:1;fill-rule:evenodd;stroke:none;stroke-width:7.5;stroke-linecap:round;stroke-linejoin:miter;stroke-miterlimit:4;stroke-dasharray:none;stroke-dashoffset:0;stroke-opacity:1;color-rendering:auto;image-rendering:auto;shape-rendering:auto;text-rendering:auto;enable-background:accumulate" />
    </g>
  </g>
</svg>
