<?xml version="1.0" encoding="UTF-8" standalone="no"?>
<!-- Created with Inkscape (http://www.inkscape.org/) -->

<svg
   xmlns:dc="http://purl.org/dc/elements/1.1/"
   xmlns:cc="http://creativecommons.org/ns#"
   xmlns:rdf="http://www.w3.org/1999/02/22-rdf-syntax-ns#"
   xmlns:svg="http://www.w3.org/2000/svg"
   xmlns="http://www.w3.org/2000/svg"
   xmlns:sodipodi="http://sodipodi.sourceforge.net/DTD/sodipodi-0.dtd"
   xmlns:inkscape="http://www.inkscape.org/namespaces/inkscape"
   width="210mm"
   height="297mm"
   viewBox="0 0 744.09448819 1052.3622047"
   id="svg2"
   version="1.1"
   inkscape:version="0.91 r13725"
   sodipodi:docname="1_7_drawing.svg">
  <defs
     id="defs4" />
  <sodipodi:namedview
     id="base"
     pagecolor="#ffffff"
     bordercolor="#666666"
     borderopacity="1.0"
     inkscape:pageopacity="0.0"
     inkscape:pageshadow="2"
     inkscape:zoom="0.70710678"
     inkscape:cx="-48.607107"
     inkscape:cy="705.3916"
     inkscape:document-units="px"
     inkscape:current-layer="layer1"
     showgrid="false"
     inkscape:snap-bbox="true"
     inkscape:snap-bbox-edge-midpoints="false"
     inkscape:bbox-nodes="false"
     inkscape:object-paths="true"
     inkscape:snap-intersection-paths="true"
     inkscape:snap-smooth-nodes="true"
     inkscape:bbox-paths="true"
     inkscape:window-width="1920"
     inkscape:window-height="1018"
     inkscape:window-x="-8"
     inkscape:window-y="-8"
     inkscape:window-maximized="1"
     inkscape:snap-global="false"
     showguides="false"
     inkscape:snap-nodes="true"
     inkscape:object-nodes="true" />
  <metadata
     id="metadata7">
    <rdf:RDF>
      <cc:Work
         rdf:about="">
        <dc:format>image/svg+xml</dc:format>
        <dc:type
           rdf:resource="http://purl.org/dc/dcmitype/StillImage" />
        <dc:title />
      </cc:Work>
    </rdf:RDF>
  </metadata>
  <g
     inkscape:label="Calque 1"
     inkscape:groupmode="layer"
     id="layer1">
    <g
       id="g4727"
       transform="translate(39.765719,-442.33008)"
       inkscape:export-filename="C:\travail\gmf_website\content\images\1_7_drawing.png"
       inkscape:export-xdpi="8.3599997"
       inkscape:export-ydpi="8.3599997">
      <path
         id="path4682"
         d="m 240.81445,553.0293 c -2.74548,4.2e-4 -5.49034,1.05222 -7.59375,3.15625 l -60.52148,60.53906 c -4.20681,4.20805 -4.2062,10.9827 0.002,15.18945 l 9.08594,9.08399 32.86328,-32.80078 c 1.43353,-1.43084 3.57,-1.28201 4.79102,0.33398 l 3.21679,4.25977 c 1.22102,1.61599 1.05072,4.06916 -0.38281,5.5 l -31.625,31.5664 41.58203,41.56836 32.875,-32.81445 c 1.43354,-1.43084 3.57195,-1.28201 4.79297,0.33398 l 3.2168,4.25781 c 1.22101,1.616 1.05072,4.06917 -0.38281,5.5 l -31.64063,31.58204 42.53125,42.51757 75.14844,-76.29296 -110.36328,-110.32618 c -2.10406,-2.10337 -4.85023,-3.15472 -7.59571,-3.15429 z"
         style="color:#000000;clip-rule:nonzero;display:inline;overflow:visible;visibility:visible;opacity:1;isolation:auto;mix-blend-mode:normal;color-interpolation:sRGB;color-interpolation-filters:linearRGB;solid-color:#000000;solid-opacity:1;fill:#808080;fill-opacity:1;fill-rule:evenodd;stroke:none;stroke-width:7.5;stroke-linecap:round;stroke-linejoin:miter;stroke-miterlimit:4;stroke-dasharray:none;stroke-dashoffset:0;stroke-opacity:1;color-rendering:auto;image-rendering:auto;shape-rendering:auto;text-rendering:auto;enable-background:accumulate"
         inkscape:connector-curvature="0" />
      <path
         id="rect4650"
         d="m 449.42578,757.13281 -75.14844,76.29102 11.59961,11.5957 32.32032,-32.25976 c 1.43353,-1.43084 3.57,-1.28201 4.79101,0.33398 l 3.21875,4.25977 c 1.22102,1.61599 1.04877,4.06916 -0.38476,5.5 l -31.08399,31.02539 42.05469,42.04101 34.43555,-34.36914 c 1.43353,-1.43084 3.57195,-1.28201 4.79296,0.33399 l 3.2168,4.25781 c 1.22102,1.61599 1.05072,4.06916 -0.38281,5.5 l -33.19922,33.13672 42.58984,42.57617 33.54102,-33.47852 c 1.43353,-1.43083 3.57195,-1.28201 4.79297,0.33399 l 3.2168,4.25781 c 1.22101,1.61599 1.05072,4.06916 -0.38282,5.5 l -32.30664,32.24609 8.01563,8.01368 c 4.2081,4.20675 10.98264,4.20613 15.18945,-0.002 l 60.52148,-60.53906 c 4.20681,-4.20805 4.20621,-10.9827 -0.002,-15.18945 l -131.4062,-131.3652 z"
         style="color:#000000;clip-rule:nonzero;display:inline;overflow:visible;visibility:visible;opacity:1;isolation:auto;mix-blend-mode:normal;color-interpolation:sRGB;color-interpolation-filters:linearRGB;solid-color:#000000;solid-opacity:1;fill:#808080;fill-opacity:1;fill-rule:evenodd;stroke:none;stroke-width:7.5;stroke-linecap:round;stroke-linejoin:miter;stroke-miterlimit:4;stroke-dasharray:none;stroke-dashoffset:0;stroke-opacity:1;color-rendering:auto;image-rendering:auto;shape-rendering:auto;text-rendering:auto;enable-background:accumulate"
         inkscape:connector-curvature="0" />
      <path
         sodipodi:nodetypes="cccc"
         inkscape:connector-curvature="0"
         id="path4656"
         d="m 153.53192,961.5801 50.2094,-95.2085 45.42406,45.54876 z"
         inkscape:transform-center-y="-1.4547791"
         inkscape:transform-center-x="7.733297"
         style="color:#000000;clip-rule:nonzero;display:inline;overflow:visible;visibility:visible;opacity:1;isolation:auto;mix-blend-mode:normal;color-interpolation:sRGB;color-interpolation-filters:linearRGB;solid-color:#000000;solid-opacity:1;fill:#808080;fill-opacity:1;fill-rule:evenodd;stroke:none;stroke-width:7.5;stroke-linecap:round;stroke-linejoin:miter;stroke-miterlimit:4;stroke-dasharray:none;stroke-dashoffset:0;stroke-opacity:1;color-rendering:auto;image-rendering:auto;shape-rendering:auto;text-rendering:auto;enable-background:accumulate" />
      <path
         sodipodi:nodetypes="sssssssss"
         inkscape:connector-curvature="0"
         id="rect4724"
         d="m 769.38556,42.505291 42.2314,0 c 11.00777,0 19.86963,8.861854 19.86963,19.869629 l 0,368.63626 c 0,15.41014 -23.35885,20.52165 -34.36419,20.33255 l -12.88637,-0.22142 c -11.00536,-0.18909 -34.7201,-1.83851 -34.7201,-20.11113 l 0,-368.63626 c 0,-11.007775 8.86185,-19.869629 19.86963,-19.869629 z"
         style="color:#000000;clip-rule:nonzero;display:inline;overflow:visible;visibility:visible;opacity:1;isolation:auto;mix-blend-mode:normal;color-interpolation:sRGB;color-interpolation-filters:linearRGB;solid-color:#000000;solid-opacity:1;fill:#808080;fill-opacity:1;fill-rule:evenodd;stroke:none;stroke-width:7.5;stroke-linecap:round;stroke-linejoin:miter;stroke-miterlimit:4;stroke-dasharray:none;stroke-dashoffset:0;stroke-opacity:1;color-rendering:auto;image-rendering:auto;shape-rendering:auto;text-rendering:auto;enable-background:accumulate"
         transform="matrix(0.70175136,0.71242195,-0.70945255,0.70475321,0,0)" />
    </g>
  </g>
</svg>
