<?xml version="1.0" encoding="UTF-8" standalone="no"?>
<!-- Created with Inkscape (http://www.inkscape.org/) -->

<svg
   xmlns:dc="http://purl.org/dc/elements/1.1/"
   xmlns:cc="http://creativecommons.org/ns#"
   xmlns:rdf="http://www.w3.org/1999/02/22-rdf-syntax-ns#"
   xmlns:svg="http://www.w3.org/2000/svg"
   xmlns="http://www.w3.org/2000/svg"
   xmlns:sodipodi="http://sodipodi.sourceforge.net/DTD/sodipodi-0.dtd"
   xmlns:inkscape="http://www.inkscape.org/namespaces/inkscape"
   width="210mm"
   height="297mm"
   viewBox="0 0 744.09448819 1052.3622047"
   id="svg2"
   version="1.1"
   inkscape:version="0.91 r13725"
   sodipodi:docname="2_1_configuration.svg">
  <defs
     id="defs4" />
  <sodipodi:namedview
     id="base"
     pagecolor="#ffffff"
     bordercolor="#666666"
     borderopacity="1.0"
     inkscape:pageopacity="0.0"
     inkscape:pageshadow="2"
     inkscape:zoom="0.49497475"
     inkscape:cx="-67.133326"
     inkscape:cy="277.72368"
     inkscape:document-units="px"
     inkscape:current-layer="layer1"
     showgrid="false"
     inkscape:window-width="1920"
     inkscape:window-height="1018"
     inkscape:window-x="-8"
     inkscape:window-y="-8"
     inkscape:window-maximized="1"
     inkscape:snap-bbox="true"
     inkscape:bbox-nodes="true"
     inkscape:snap-bbox-edge-midpoints="true"
     inkscape:snap-global="false"
     inkscape:bbox-paths="true"
     inkscape:object-paths="true"
     inkscape:snap-intersection-paths="true"
     inkscape:object-nodes="true"
     inkscape:snap-bbox-midpoints="true"
     showguides="false" />
  <metadata
     id="metadata7">
    <rdf:RDF>
      <cc:Work
         rdf:about="">
        <dc:format>image/svg+xml</dc:format>
        <dc:type
           rdf:resource="http://purl.org/dc/dcmitype/StillImage" />
        <dc:title />
      </cc:Work>
    </rdf:RDF>
  </metadata>
  <g
     inkscape:label="Calque 1"
     inkscape:groupmode="layer"
     id="layer1">
    <path
       style="color:#000000;clip-rule:nonzero;display:inline;overflow:visible;visibility:visible;opacity:1;isolation:auto;mix-blend-mode:normal;color-interpolation:sRGB;color-interpolation-filters:linearRGB;solid-color:#000000;solid-opacity:1;fill:#808080;fill-opacity:1;fill-rule:evenodd;stroke:none;stroke-width:40.79999924;stroke-linecap:round;stroke-linejoin:miter;stroke-miterlimit:4;stroke-dasharray:none;stroke-dashoffset:0;stroke-opacity:1;color-rendering:auto;image-rendering:auto;shape-rendering:auto;text-rendering:auto;enable-background:accumulate"
       d="m 246.44397,425.94786 c -29.65227,0 -53.52592,23.87365 -53.52592,53.52592 l 0,215.49528 c 0,29.65225 23.87365,53.52194 53.52592,53.52194 l 215.49528,0 c 29.65225,0 53.52194,-23.86969 53.52194,-53.52194 l 0,-215.49528 c 0,-29.65227 -23.86969,-53.52592 -53.52194,-53.52592 l -215.49528,0 z m 52.06696,37.27109 8.94411,0 c 6.4092,0 11.56868,5.15948 11.56868,11.56868 l 0,23.62102 c 0,0.0495 -0.008,0.0972 -0.008,0.14676 a 64.158384,64.158384 0 0 1 15.93764,6.37903 c 0.32653,-0.43409 0.67485,-0.85723 1.07046,-1.25281 l 16.7028,-16.70283 c 4.53199,-4.53199 11.82988,-4.53199 16.36187,0 l 6.32351,6.32353 c 4.53199,4.53199 4.53199,11.82986 0,16.36185 l -16.7028,16.70283 c -0.24385,0.24382 -0.50224,0.46827 -0.76121,0.68587 a 64.158384,64.158384 0 0 1 6.85873,15.02579 c 0.82863,-0.18716 1.69015,-0.29338 2.57698,-0.29338 l 23.62103,0 c 6.40921,0 11.56868,5.15948 11.56868,11.56867 l 0,8.94412 c 0,6.40921 -5.15947,11.56867 -11.56868,11.56867 l -23.62103,0 c -0.40887,0 -0.81546,-0.0225 -1.21315,-0.0633 a 64.158384,64.158384 0 0 1 -5.43546,15.75133 c 0.64211,0.42483 1.24928,0.92022 1.81578,1.48671 l 16.70282,16.70281 c 4.53199,4.53199 4.53199,11.82988 0,16.36187 l -6.31955,6.31955 c -4.53199,4.53199 -11.82988,4.53199 -16.36187,0 l -16.7028,-16.70283 c -0.0388,-0.0388 -0.0729,-0.0798 -0.11104,-0.11895 a 64.158384,64.158384 0 0 1 -15.30331,7.6596 c 0.0564,0.46475 0.0952,0.93489 0.0952,1.41534 l 0,23.62103 c 0,6.40921 -5.15946,11.56868 -11.56867,11.56868 l -8.94412,0 c -6.40919,0 -11.56867,-5.15947 -11.56867,-11.56868 l 0,-22.36423 a 64.158384,64.158384 0 0 1 -17.59483,-5.79228 l -15.87026,15.87421 c -4.53199,4.53199 -11.82988,4.53199 -16.36187,0 l -6.32353,-6.32351 c -4.53199,-4.53199 -4.53199,-11.82988 0,-16.36187 l 14.25667,-14.25667 a 64.158384,64.158384 0 0 1 -8.57541,-17.95562 l -21.78146,0 c -6.40919,0 -11.56865,-5.15946 -11.56865,-11.56867 l 0,-8.94016 c 0,-6.40919 5.15946,-11.56865 11.56865,-11.56865 l 20.61587,0 a 64.158384,64.158384 0 0 1 6.91413,-18.00721 l -15.5293,-15.5293 c -4.53199,-4.53199 -4.53199,-11.8259 0,-16.35789 l 6.32353,-6.32353 c 4.53199,-4.53199 11.8259,-4.53199 16.35789,0 l 15.18834,15.18438 a 64.158384,64.158384 0 0 1 16.87329,-7.20762 c -0.004,-0.13153 -0.0203,-0.25986 -0.0203,-0.39249 l 0,-23.62103 c 0,-6.40919 5.15947,-11.56868 11.56868,-11.56868 z m 4.92402,71.22783 a 26.279561,26.279561 0 0 0 -26.2773,26.2773 26.279561,26.279561 0 0 0 26.2773,26.28127 26.279561,26.279561 0 0 0 26.28125,-26.28127 26.279561,26.279561 0 0 0 -26.28125,-26.2773 z m 135.43434,35.88349 5.41563,0 c 3.88144,0 7.00543,3.12401 7.00543,7.00543 l 0,14.30821 c 0,0.0302 -0.004,0.0572 -0.004,0.0873 a 38.854548,38.854548 0 0 1 9.65377,3.8615 c 0.19771,-0.26286 0.40673,-0.51771 0.64623,-0.75722 l 10.11762,-10.11366 c 2.74459,-2.74459 7.16295,-2.74459 9.90752,0 l 3.82979,3.82977 c 2.74459,2.74459 2.74459,7.16293 0,9.90751 l -10.11366,10.11369 c -0.14757,0.14757 -0.30716,0.28453 -0.46387,0.41626 a 38.854548,38.854548 0 0 1 4.1549,9.09875 c 0.50183,-0.11326 1.02498,-0.17842 1.56205,-0.17842 l 14.30423,0 c 3.88143,2e-5 7.00544,3.12799 7.00544,7.0094 l 0,5.41564 c 0,3.88143 -3.12401,7.00542 -7.00544,7.00542 l -14.30423,0 c -0.24765,0 -0.49667,-0.0142 -0.73741,-0.0396 a 38.854548,38.854548 0 0 1 -3.29063,9.5388 c 0.38887,0.25731 0.75909,0.56086 1.10216,0.90393 l 10.11367,10.11366 c 2.7446,2.74459 2.7446,7.16292 0,9.90751 l -3.82582,3.8298 c -2.74459,2.74458 -7.16688,2.74458 -9.91147,0 l -10.11368,-10.11763 c -0.0236,-0.0235 -0.0453,-0.0469 -0.0674,-0.0714 a 38.854548,38.854548 0 0 1 -9.26919,4.63858 c 0.0331,0.28144 0.0595,0.56538 0.0595,0.85634 l 0,14.30425 c 0,3.88144 -3.12399,7.00939 -7.00542,7.00939 l -5.4196,0 c -3.88143,0 -7.00542,-3.12795 -7.00542,-7.00939 l 0,-13.54305 a 38.854548,38.854548 0 0 1 -10.65286,-3.50865 l -9.61405,9.61408 c -2.74461,2.74458 -7.16291,2.74458 -9.90751,0 l -3.8298,-3.8298 c -2.74459,-2.74459 -2.74459,-7.16292 0,-9.90751 l 8.63488,-8.63487 a 38.854548,38.854548 0 0 1 -5.1936,-10.87486 l -13.1902,0 c -3.88145,0 -7.00542,-3.12401 -7.00542,-7.00545 l 0,-5.41165 c 0,-3.88142 3.12397,-7.00543 7.00542,-7.00543 l 12.48449,0 a 38.854548,38.854548 0 0 1 4.18661,-10.90659 l -9.404,-9.404 c -2.74459,-2.74459 -2.74459,-7.16292 0,-9.90751 l 3.8298,-3.8298 c 2.74458,-2.74459 7.16292,-2.74459 9.90751,0 l 9.19785,9.19785 a 38.854548,38.854548 0 0 1 10.21674,-4.36501 c -0.002,-0.0796 -0.0122,-0.15772 -0.0122,-0.23788 l 0,-14.30821 c 0,-3.88144 3.12397,-7.00543 7.00542,-7.00543 z m 2.98137,43.1387 a 15.914996,15.914996 0 0 0 -15.91386,15.90991 15.914996,15.914996 0 0 0 15.91386,15.91782 15.914996,15.914996 0 0 0 15.91783,-15.91782 15.914996,15.914996 0 0 0 -15.91783,-15.90991 z"
       id="rect4492"
       inkscape:connector-curvature="0"
       inkscape:export-filename="C:\travail\gmf_website\content\images\2_1_configuration.png"
       inkscape:export-xdpi="11.16"
       inkscape:export-ydpi="11.16" />
  </g>
</svg>
