<?xml version="1.0" encoding="UTF-8" standalone="no"?>
<!-- Created with Inkscape (http://www.inkscape.org/) -->

<svg
   xmlns:dc="http://purl.org/dc/elements/1.1/"
   xmlns:cc="http://creativecommons.org/ns#"
   xmlns:rdf="http://www.w3.org/1999/02/22-rdf-syntax-ns#"
   xmlns:svg="http://www.w3.org/2000/svg"
   xmlns="http://www.w3.org/2000/svg"
   xmlns:sodipodi="http://sodipodi.sourceforge.net/DTD/sodipodi-0.dtd"
   xmlns:inkscape="http://www.inkscape.org/namespaces/inkscape"
   width="210mm"
   height="297mm"
   viewBox="0 0 744.09448819 1052.3622047"
   id="svg2"
   version="1.1"
   inkscape:version="0.91 r13725"
   sodipodi:docname="2_2_authentication.svg">
  <defs
     id="defs4" />
  <sodipodi:namedview
     id="base"
     pagecolor="#ffffff"
     bordercolor="#666666"
     borderopacity="1.0"
     inkscape:pageopacity="0.0"
     inkscape:pageshadow="2"
     inkscape:zoom="0.35"
     inkscape:cx="336.26876"
     inkscape:cy="87.874542"
     inkscape:document-units="px"
     inkscape:current-layer="layer1"
     showgrid="false"
     inkscape:window-width="1920"
     inkscape:window-height="1018"
     inkscape:window-x="-8"
     inkscape:window-y="-8"
     inkscape:window-maximized="1"
     inkscape:snap-bbox="true"
     inkscape:bbox-nodes="true"
     inkscape:snap-bbox-edge-midpoints="true"
     inkscape:snap-global="true"
     inkscape:bbox-paths="true"
     inkscape:object-paths="true"
     inkscape:snap-intersection-paths="true"
     inkscape:object-nodes="true" />
  <metadata
     id="metadata7">
    <rdf:RDF>
      <cc:Work
         rdf:about="">
        <dc:format>image/svg+xml</dc:format>
        <dc:type
           rdf:resource="http://purl.org/dc/dcmitype/StillImage" />
        <dc:title />
      </cc:Work>
    </rdf:RDF>
  </metadata>
  <g
     inkscape:label="Calque 1"
     inkscape:groupmode="layer"
     id="layer1">
    <g
       id="g4348"
       transform="translate(48.57143,-171.42858)"
       inkscape:export-filename="C:\travail\gmf_website\content\images\2_2_authentication.png"
       inkscape:export-xdpi="9.9212503"
       inkscape:export-ydpi="9.9212503">
      <path
         sodipodi:nodetypes="ccccccccccc"
         inkscape:connector-curvature="0"
         id="path4149-4"
         d="m 356.66217,730.19502 c -0.004,-3.98364 -4.87233,-7.76122 -13.29102,-10.3125 -17.38759,-8.89651 -15.43639,-11.71089 -11.28125,-18.05078 3.6592,-4.11268 5.72762,-9.79043 5.72852,-15.72461 -8e-4,-12.04803 -8.35461,-21.81484 -18.66016,-21.81641 -10.30707,-9.4e-4 -18.66325,9.7666 -18.66405,21.81641 0.004,6.53102 2.50999,12.7166 6.83007,16.85742 3.82231,6.05948 3.09516,8.81468 -15.66405,18.48437 -5.75518,2.43421 -8.92218,5.53677 -8.92775,8.7461 -1.9e-4,7.41919 16.54964,13.43365 36.96485,13.43359 13.86679,-1.06964 35.66048,-2.38665 36.96484,-13.43359 z"
         style="color:#000000;clip-rule:nonzero;display:inline;overflow:visible;visibility:visible;opacity:1;isolation:auto;mix-blend-mode:normal;color-interpolation:sRGB;color-interpolation-filters:linearRGB;solid-color:#000000;solid-opacity:1;fill:#808080;fill-opacity:1;fill-rule:evenodd;stroke:none;stroke-width:7.5;stroke-linecap:round;stroke-linejoin:miter;stroke-miterlimit:4;stroke-dasharray:none;stroke-dashoffset:0;stroke-opacity:1;color-rendering:auto;image-rendering:auto;shape-rendering:auto;text-rendering:auto;enable-background:accumulate" />
      <path
         sodipodi:nodetypes="ssssssssssccccccccssssssssss"
         inkscape:connector-curvature="0"
         id="rect4308"
         d="m 217.79688,480.21875 c -42.3076,0 -76.36915,34.05959 -76.36915,76.36719 l 0,210.12304 c 0,42.3076 34.06155,76.36719 76.36915,76.36719 l 202.97851,0 c 42.3076,0 76.36719,-34.05959 76.36719,-76.36719 l 0,-210.12304 c 0,-42.3076 -34.05959,-76.36719 -76.36719,-76.36719 z m 101.94531,48.37109 c 28.67178,-0.0401 57.2654,20.17878 57.58008,58.95118 l 0,36.07031 -28.21485,0 0,-36.07031 c 0.11626,-44.73407 -54.59365,-35.68563 -56.42885,-10.536 l -1.42857,64.286 -28.21484,0 0,-64.10743 c 0.99671,-31.2352 31.40839,-48.55832 56.70703,-48.59375 z m -63.44922,116.80274 126.60547,0 c 7.24727,0 13.08203,5.83475 13.08203,13.08203 l 0,89.10547 c 0,7.24727 -5.83476,13.08203 -13.08203,13.08203 l -126.60547,0 c -7.24728,0 -13.08008,-5.83476 -13.08008,-13.08203 l 0,-89.10547 c 0,-7.24728 5.8328,-13.08203 13.08008,-13.08203 z"
         style="color:#000000;clip-rule:nonzero;display:inline;overflow:visible;visibility:visible;opacity:1;isolation:auto;mix-blend-mode:normal;color-interpolation:sRGB;color-interpolation-filters:linearRGB;solid-color:#000000;solid-opacity:1;fill:#808080;fill-opacity:1;fill-rule:evenodd;stroke:none;stroke-width:40.79999924;stroke-linecap:round;stroke-linejoin:miter;stroke-miterlimit:4;stroke-dasharray:none;stroke-dashoffset:0;stroke-opacity:1;color-rendering:auto;image-rendering:auto;shape-rendering:auto;text-rendering:auto;enable-background:accumulate" />
    </g>
  </g>
</svg>
