<?xml version="1.0" encoding="UTF-8" standalone="no"?>
<!-- Created with Inkscape (http://www.inkscape.org/) -->

<svg
   xmlns:dc="http://purl.org/dc/elements/1.1/"
   xmlns:cc="http://creativecommons.org/ns#"
   xmlns:rdf="http://www.w3.org/1999/02/22-rdf-syntax-ns#"
   xmlns:svg="http://www.w3.org/2000/svg"
   xmlns="http://www.w3.org/2000/svg"
   xmlns:sodipodi="http://sodipodi.sourceforge.net/DTD/sodipodi-0.dtd"
   xmlns:inkscape="http://www.inkscape.org/namespaces/inkscape"
   width="210mm"
   height="297mm"
   viewBox="0 0 744.09448819 1052.3622047"
   id="svg2"
   version="1.1"
   inkscape:version="0.91 r13725"
   sodipodi:docname="2_3_roles.svg">
  <defs
     id="defs4" />
  <sodipodi:namedview
     id="base"
     pagecolor="#ffffff"
     bordercolor="#666666"
     borderopacity="1.0"
     inkscape:pageopacity="0.0"
     inkscape:pageshadow="2"
     inkscape:zoom="0.7"
     inkscape:cx="243.41676"
     inkscape:cy="450.20525"
     inkscape:document-units="px"
     inkscape:current-layer="layer1"
     showgrid="false"
     inkscape:window-width="1920"
     inkscape:window-height="1018"
     inkscape:window-x="-8"
     inkscape:window-y="-8"
     inkscape:window-maximized="1" />
  <metadata
     id="metadata7">
    <rdf:RDF>
      <cc:Work
         rdf:about="">
        <dc:format>image/svg+xml</dc:format>
        <dc:type
           rdf:resource="http://purl.org/dc/dcmitype/StillImage" />
        <dc:title />
      </cc:Work>
    </rdf:RDF>
  </metadata>
  <g
     inkscape:label="Calque 1"
     inkscape:groupmode="layer"
     id="layer1">
    <path
       style="color:#000000;clip-rule:nonzero;display:inline;overflow:visible;visibility:visible;opacity:1;isolation:auto;mix-blend-mode:normal;color-interpolation:sRGB;color-interpolation-filters:linearRGB;solid-color:#000000;solid-opacity:1;fill:#808080;fill-opacity:1;fill-rule:evenodd;stroke:none;stroke-width:7.5;stroke-linecap:round;stroke-linejoin:miter;stroke-miterlimit:4;stroke-dasharray:none;stroke-dashoffset:0;stroke-opacity:1;color-rendering:auto;image-rendering:auto;shape-rendering:auto;text-rendering:auto;enable-background:accumulate"
       d="m 222.78348,13.791301 a 14.876039,17.391311 0 0 0 -14.87695,17.39062 14.876039,17.391311 0 0 0 5.44531,13.43555 c 3.04678,4.83004 2.46674,7.02662 -12.48632,14.73437 a 29.464618,10.707874 0 0 0 -7.11524,6.97071 29.464618,10.707874 0 0 0 15.33203,9.38281 l -33.04883,61.753909 a 19.464287,19.464287 0 0 0 -1.92578,-0.0977 19.464287,19.464287 0 0 0 -0.32226,0.0117 L 152.52177,96.767861 a 36.964561,13.433463 0 0 0 15.87109,-11.02734 36.964561,13.433463 0 0 0 -13.29102,-10.3125 c -17.38759,-8.89651 -15.43639,-11.71089 -11.28125,-18.05078 a 18.662596,21.818107 0 0 0 5.72852,-15.72461 18.662596,21.818107 0 0 0 -18.66016,-21.81641 18.662596,21.818107 0 0 0 -18.66406,21.81641 18.662596,21.818107 0 0 0 6.83008,16.85742 c 3.82231,6.05948 3.09516,8.81468 -15.66406,18.48437 a 36.964561,13.433463 0 0 0 -8.927743,8.7461 36.964561,13.433463 0 0 0 36.964853,13.43359 36.964561,13.433463 0 0 0 5.55078,-0.16797 l 23.18359,44.271489 a 19.464287,19.464287 0 0 0 -5.51953,13.54882 19.464287,19.464287 0 0 0 2.19336,8.96094 l -30.14844,52.64258 C 104.0054,205.21319 107.8327,199.55966 115.07841,188.50419 a 36.964287,43.214287 0 0 0 11.34961,-31.14258 36.964287,43.214287 0 0 0 -36.962893,-43.21289 36.964287,43.214287 0 0 0 -36.96485,43.21289 36.964287,43.214287 0 0 0 13.52735,33.38672 c 7.5707,12.00178 6.13027,17.46088 -31.02539,36.61328 a 73.214287,26.607143 0 0 0 -17.68165,17.32226 73.214287,26.607143 0 0 0 73.21485,26.6074 73.214287,26.607143 0 0 0 73.214843,-26.6074 73.214287,26.607143 0 0 0 -23.62109,-19.54101 l 28.44336,-49.66602 a 19.464287,19.464287 0 0 0 5.53515,0.81446 19.464287,19.464287 0 0 0 12.71875,-4.76367 l 22.61329,6.88671 a 51.607309,18.754852 0 0 0 -9.08399,10.60157 51.607309,18.754852 0 0 0 51.60938,18.75586 51.607309,18.754852 0 0 0 51.60742,-18.75586 51.607309,18.754852 0 0 0 -18.55664,-14.39649 c -24.27533,-12.42069 -21.55308,-16.3518 -15.75196,-25.20312 a 26.055398,30.460899 0 0 0 8,-21.95117 26.055398,30.460899 0 0 0 -26.05468,-30.458989 26.055398,30.460899 0 0 0 -26.05469,30.458989 26.055398,30.460899 0 0 0 9.53516,23.5332 c 4.01807,6.36983 4.4242,10.12788 -6.79493,17.35742 l -34.37695,-10.4707 a 19.464287,19.464287 0 0 0 0.0527,-1.0586 19.464287,19.464287 0 0 0 -4.47461,-12.39257 l 36.0918,-67.437499 a 29.464618,10.707874 0 0 0 27.49219,-10.67383 29.464618,10.707874 0 0 0 -10.5957,-8.21875 c -13.85973,-7.09145 -12.30427,-9.33511 -8.99219,-14.38867 a 14.876039,17.391311 0 0 0 4.5664,-12.53321 14.876039,17.391311 0 0 0 -14.875,-17.39062 z"
       id="path4149"
       inkscape:connector-curvature="0"
       inkscape:export-filename="C:\travail\gmf_website\content\images\2_3_roles.png"
       inkscape:export-xdpi="12.582524"
       inkscape:export-ydpi="12.582524" />
  </g>
</svg>
