<?xml version="1.0" encoding="UTF-8" standalone="no"?>
<!-- Created with Inkscape (http://www.inkscape.org/) -->

<svg
   xmlns:dc="http://purl.org/dc/elements/1.1/"
   xmlns:cc="http://creativecommons.org/ns#"
   xmlns:rdf="http://www.w3.org/1999/02/22-rdf-syntax-ns#"
   xmlns:svg="http://www.w3.org/2000/svg"
   xmlns="http://www.w3.org/2000/svg"
   xmlns:sodipodi="http://sodipodi.sourceforge.net/DTD/sodipodi-0.dtd"
   xmlns:inkscape="http://www.inkscape.org/namespaces/inkscape"
   width="210mm"
   height="297mm"
   viewBox="0 0 744.09448819 1052.3622047"
   id="svg2"
   version="1.1"
   inkscape:version="0.91 r13725"
   sodipodi:docname="3_1_pdf.svg">
  <defs
     id="defs4" />
  <sodipodi:namedview
     id="base"
     pagecolor="#ffffff"
     bordercolor="#666666"
     borderopacity="1.0"
     inkscape:pageopacity="0.0"
     inkscape:pageshadow="2"
     inkscape:zoom="0.7"
     inkscape:cx="150.38103"
     inkscape:cy="460.34499"
     inkscape:document-units="px"
     inkscape:current-layer="layer1"
     showgrid="false"
     inkscape:window-width="1920"
     inkscape:window-height="1018"
     inkscape:window-x="-8"
     inkscape:window-y="-8"
     inkscape:window-maximized="1"
     inkscape:snap-bbox="true"
     inkscape:bbox-nodes="true"
     inkscape:snap-bbox-edge-midpoints="true"
     inkscape:snap-global="false"
     inkscape:bbox-paths="true"
     inkscape:object-paths="true"
     inkscape:snap-intersection-paths="true"
     inkscape:object-nodes="true"
     inkscape:snap-bbox-midpoints="true"
     showguides="false" />
  <metadata
     id="metadata7">
    <rdf:RDF>
      <cc:Work
         rdf:about="">
        <dc:format>image/svg+xml</dc:format>
        <dc:type
           rdf:resource="http://purl.org/dc/dcmitype/StillImage" />
        <dc:title />
      </cc:Work>
    </rdf:RDF>
  </metadata>
  <g
     inkscape:label="Calque 1"
     inkscape:groupmode="layer"
     id="layer1">
    <g
       id="g4536"
       transform="translate(177.14286,478.57143)"
       inkscape:export-filename="C:\travail\gmf_website\content\images\3_1_pdf.png"
       inkscape:export-xdpi="7.0312495"
       inkscape:export-ydpi="7.0312495">
      <path
         inkscape:connector-curvature="0"
         style="fill:#808080;fill-opacity:1"
         id="path4"
         d="m 28.856866,-157.92355 c -22.0000003,0 -40.000002,18 -40.000002,40 l 0,432 c 0,22 18.0000017,40 40.000002,40 l 368.000004,0 c 22,0 40,-18 40,-40 l 0,-304.000003 c 0,-22 -12.69883,-52.69929 -28.29883,-68.27929 l -71.40039,-71.441407 c -15.6,-15.55 -46.30078,-28.2793 -68.30078,-28.2793 l -240.000004,0 z m 0,32 240.000004,0 c 2.4,0 5.1,0.29961 8,0.84961 l 0,127.201177 127.09961,0 c 0.6,2.89999 0.90039,5.6 0.90039,8 l 0,303.949213 c 0,4.3 -3.7,8 -8,8 l -368.000004,0 c -4.34,0 -8,-3.7 -8,-8 l 0,-432 c 0,-4.34 3.66,-8 8,-8 z m 280.000004,14.26953 c 2.2,1.52001 4.10117,3.08063 5.70117,4.64063 l 71.39844,71.390627 c 1.6,1.6 3.10156,3.49921 4.60156,5.69921 l -81.70117,0 0,-81.730467 z" />
      <path
         style="fill:#808080;fill-opacity:1"
         id="path8"
         d="m 371.35715,158.87649 c -2.1,1.3 -8.1,2.1 -11.9,2.1 -12.4,0 -27.6,-5.7 -49.1,-14.9 8.3,-0.6 15.8,-0.9 22.6,-0.9 12.4,0 16,0 28.2,3.1 12.1,3 12.2,9.3 10.2,10.6 z m -215.1,1.9 c 4.8,-8.4 9.7,-17.3 14.7,-26.8 12.2,-23.1 20,-41.300003 25.7,-56.200003 11.5,20.9 25.8,38.600003 42.5,52.800003 2.1,1.8 4.3,3.5 6.7,5.3 -34.1,6.8 -63.6,15 -89.6,24.9 z m 39.8,-218.900003 c 6.8,0 10.7,17.06 11,33.16 0.3,16 -3.4,27.2 -8.1,35.6 -3.9,-12.4 -5.7,-31.8 -5.7,-44.5 0,0 -0.3,-24.26 2.8,-24.26 z M 62.657146,249.07649 c 3.9,-10.5 19.1,-31.3 41.600004,-49.8 1.4,-1.1 4.9,-4.4 8.1,-7.4 -23.500004,37.6 -39.300004,52.5 -49.700004,57.2 z m 315.200004,-112.3 c -6.8,-6.7 -22,-10.2 -45,-10.5 -15.6,-0.2 -34.3,1.2 -54.1,3.9 -8.8,-5.1 -17.9,-10.6 -25.1,-17.3 -19.2,-18.000003 -35.2,-42.900003 -45.2,-70.300003 0.6,-2.6 1.2,-4.8 1.7,-7.1 0,0 10.8,-61.5 7.9,-82.3 -0.4,-2.9 -0.6,-3.7 -1.4,-5.9 l -0.9,-2.5 c -2.9,-6.76 -8.7,-13.96 -17.8,-13.57 l -5.3,-0.17 -0.1,0 c -10.1,0 -18.4,5.17 -20.5,12.84 -6.6,24.3 0.2,60.5 12.5,107.4 l -3.2,7.7 c -8.8,21.4 -19.8,43.000003 -29.5,62.000003 l -1.3,2.5 c -10.2,20 -19.5,37 -27.9,51.4 l -8.7,4.6 c -0.6,0.4 -15.500004,8.2 -19.000004,10.3 -29.6,17.7 -49.28,37.8 -52.54,53.8 -1.04,5 -0.26,11.5 5.01,14.6 l 8.4,4.2 c 3.63,1.8 7.53,2.7 11.43,2.7 21.1,0 45.600004,-26.2 79.300004,-85.1 39,-12.7 83.4,-23.3 122.3,-29.1 29.6,16.7 66,28.3 89,28.3 4.1,0 7.6,-0.4 10.5,-1.2 4.4,-1.1 8.1,-3.6 10.4,-7.1 4.4,-6.7 5.4,-15.9 4.1,-25.4 -0.3,-2.8 -2.6,-6.3 -5,-8.7 z"
         inkscape:connector-curvature="0" />
    </g>
  </g>
</svg>
