<?xml version="1.0" encoding="UTF-8" standalone="no"?>
<!-- Created with Inkscape (http://www.inkscape.org/) -->

<svg
   xmlns:dc="http://purl.org/dc/elements/1.1/"
   xmlns:cc="http://creativecommons.org/ns#"
   xmlns:rdf="http://www.w3.org/1999/02/22-rdf-syntax-ns#"
   xmlns:svg="http://www.w3.org/2000/svg"
   xmlns="http://www.w3.org/2000/svg"
   xmlns:sodipodi="http://sodipodi.sourceforge.net/DTD/sodipodi-0.dtd"
   xmlns:inkscape="http://www.inkscape.org/namespaces/inkscape"
   width="210mm"
   height="297mm"
   viewBox="0 0 744.09448819 1052.3622047"
   id="svg2"
   version="1.1"
   inkscape:version="0.91 r13725"
   sodipodi:docname="3_2_webmapping.svg">
  <defs
     id="defs4" />
  <sodipodi:namedview
     id="base"
     pagecolor="#ffffff"
     bordercolor="#666666"
     borderopacity="1.0"
     inkscape:pageopacity="0.0"
     inkscape:pageshadow="2"
     inkscape:zoom="0.35"
     inkscape:cx="-182.53619"
     inkscape:cy="683.99926"
     inkscape:document-units="px"
     inkscape:current-layer="layer1"
     showgrid="false"
     inkscape:window-width="1920"
     inkscape:window-height="1018"
     inkscape:window-x="-8"
     inkscape:window-y="-8"
     inkscape:window-maximized="1"
     inkscape:snap-bbox="true"
     inkscape:bbox-nodes="true"
     inkscape:snap-bbox-edge-midpoints="true"
     inkscape:snap-global="true"
     inkscape:bbox-paths="true"
     inkscape:object-paths="true"
     inkscape:snap-intersection-paths="true"
     inkscape:object-nodes="true"
     inkscape:snap-bbox-midpoints="true"
     showguides="false" />
  <metadata
     id="metadata7">
    <rdf:RDF>
      <cc:Work
         rdf:about="">
        <dc:format>image/svg+xml</dc:format>
        <dc:type
           rdf:resource="http://purl.org/dc/dcmitype/StillImage" />
        <dc:title />
      </cc:Work>
    </rdf:RDF>
  </metadata>
  <g
     inkscape:label="Calque 1"
     inkscape:groupmode="layer"
     id="layer1">
    <g
       id="g4764"
       transform="matrix(2.0807483,0,0,2.0807483,-681.47015,-615.55552)"
       inkscape:export-filename="C:\travail\gmf_website\content\images\3_2_webmapping.png"
       inkscape:export-xdpi="7.7910547"
       inkscape:export-ydpi="7.7910547">
      <path
         sodipodi:nodetypes="ccccc"
         inkscape:connector-curvature="0"
         id="rect4551"
         d="m 422.0028,535.8165 50.71429,28.92857 0.17857,62.14285 -50.89286,-28.57143 z"
         style="color:#000000;clip-rule:nonzero;display:inline;overflow:visible;visibility:visible;opacity:1;isolation:auto;mix-blend-mode:normal;color-interpolation:sRGB;color-interpolation-filters:linearRGB;solid-color:#000000;solid-opacity:1;fill:#808080;fill-opacity:1;fill-rule:evenodd;stroke:none;stroke-width:40.79999924;stroke-linecap:round;stroke-linejoin:miter;stroke-miterlimit:4;stroke-dasharray:none;stroke-dashoffset:0;stroke-opacity:1;color-rendering:auto;image-rendering:auto;shape-rendering:auto;text-rendering:auto;enable-background:accumulate" />
      <path
         id="rect4551-2"
         d="m 422.00195,601.17383 0,49.9414 c 4.27085,2.38311 9.87213,2.30064 21.69922,0.0137 3.58315,-0.69286 7.00724,-1.25977 7.60742,-1.25977 2.15784,0 5.55126,1.16512 9.58594,3.29102 2.25893,1.19024 5.56161,2.92632 7.33789,3.85742 1.94301,1.0185 3.29136,1.6027 4.56836,1.84375 l -0.084,-28.75977 -50.71485,-28.92773 z M 465.25,668.5332 c -1.43508,0.0238 -2.72344,0.32782 -3.86328,0.91211 -0.76167,0.39044 -2.58929,1.97115 -4.0625,3.51172 -3.00207,3.13931 -5.09467,5.20241 -6.86133,6.69336 l 22.43359,12.59375 -0.0625,-21.85156 c -2.86581,-1.26003 -5.40154,-1.89562 -7.58398,-1.85938 z"
         style="color:#000000;clip-rule:nonzero;display:inline;overflow:visible;visibility:visible;opacity:1;isolation:auto;mix-blend-mode:normal;color-interpolation:sRGB;color-interpolation-filters:linearRGB;solid-color:#000000;solid-opacity:1;fill:#808080;fill-opacity:1;fill-rule:evenodd;stroke:none;stroke-width:40.79999924;stroke-linecap:round;stroke-linejoin:miter;stroke-miterlimit:4;stroke-dasharray:none;stroke-dashoffset:0;stroke-opacity:1;color-rendering:auto;image-rendering:auto;shape-rendering:auto;text-rendering:auto;enable-background:accumulate"
         inkscape:connector-curvature="0" />
      <path
         id="rect4551-2-6"
         d="m 422.00195,667.63086 0,61.2207 50.89453,28.57227 -0.17968,-62.14258 -24.46289,-13.95508 c -1.11104,0.74106 -2.17863,1.30377 -3.38868,1.80664 l -1.73828,0.72266 -2.45507,-0.9668 c -4.35199,-1.7144 -7.71863,-4.28587 -14.47071,-11.05078 l -4.19922,-4.20703 z"
         style="color:#000000;clip-rule:nonzero;display:inline;overflow:visible;visibility:visible;opacity:1;isolation:auto;mix-blend-mode:normal;color-interpolation:sRGB;color-interpolation-filters:linearRGB;solid-color:#000000;solid-opacity:1;fill:#808080;fill-opacity:1;fill-rule:evenodd;stroke:none;stroke-width:40.79999924;stroke-linecap:round;stroke-linejoin:miter;stroke-miterlimit:4;stroke-dasharray:none;stroke-dashoffset:0;stroke-opacity:1;color-rendering:auto;image-rendering:auto;shape-rendering:auto;text-rendering:auto;enable-background:accumulate"
         inkscape:connector-curvature="0" />
      <path
         id="rect4551-5"
         d="m 527,535.70898 0,36.61524 c 0.15163,0.15338 0.27564,0.28678 0.43164,0.44336 5.0194,5.03796 7.07177,7.90388 10.35156,14.46094 3.966,7.92896 5.72219,13.85375 5.75782,19.42578 0.002,0.34399 -0.005,0.54885 -0.006,0.83789 L 577.89244,626.78125 577.7147,564.63867 527,535.70898 Z"
         style="color:#000000;clip-rule:nonzero;display:inline;overflow:visible;visibility:visible;opacity:1;isolation:auto;mix-blend-mode:normal;color-interpolation:sRGB;color-interpolation-filters:linearRGB;solid-color:#000000;solid-opacity:1;fill:#808080;fill-opacity:1;fill-rule:evenodd;stroke:none;stroke-width:40.79999924;stroke-linecap:round;stroke-linejoin:miter;stroke-miterlimit:4;stroke-dasharray:none;stroke-dashoffset:0;stroke-opacity:1;color-rendering:auto;image-rendering:auto;shape-rendering:auto;text-rendering:auto;enable-background:accumulate"
         inkscape:connector-curvature="0" />
      <path
         id="rect4551-2-68"
         d="m 543.34375,610.38867 c -0.13949,0.6209 -0.36704,1.13752 -0.75195,1.8711 -1.07875,2.05603 -3.15902,3.71662 -5.45313,4.35351 -0.78193,0.21708 -2.91305,0.3954 -4.73633,0.39649 -1.9792,10e-4 -3.7787,0.19569 -4.46484,0.48437 -0.26012,0.10944 -0.57577,0.30653 -0.9375,0.58008 l 0,45.49219 50.89258,28.57226 -0.17774,-62.14453 -34.37109,-19.60547 z"
         style="color:#000000;clip-rule:nonzero;display:inline;overflow:visible;visibility:visible;opacity:1;isolation:auto;mix-blend-mode:normal;color-interpolation:sRGB;color-interpolation-filters:linearRGB;solid-color:#000000;solid-opacity:1;fill:#808080;fill-opacity:1;fill-rule:evenodd;stroke:none;stroke-width:40.79999924;stroke-linecap:round;stroke-linejoin:miter;stroke-miterlimit:4;stroke-dasharray:none;stroke-dashoffset:0;stroke-opacity:1;color-rendering:auto;image-rendering:auto;shape-rendering:auto;text-rendering:auto;enable-background:accumulate"
         inkscape:connector-curvature="0" />
      <path
         id="rect4551-2-6-0"
         d="m 527,666.24414 0,9.95898 3.7207,2.9668 c 21.85084,17.43118 38.1031,37.23466 47.11133,57.31446 L 577.71484,695.17383 527,666.24414 Z m 1.5332,21.55859 c -0.26735,-0.013 -0.55471,-0.002 -0.88281,0.0254 -0.18816,0.0159 -0.426,0.0706 -0.65039,0.11524 l 0,40.80078 50.89258,28.57227 -0.0176,-6.10938 c -2.21899,-4.60991 -5.46472,-10.72866 -8.05273,-15.08789 -11.74681,-19.78626 -30.14405,-42.24277 -38.85547,-47.42969 -1.00963,-0.60114 -1.63153,-0.84784 -2.4336,-0.88672 z"
         style="color:#000000;clip-rule:nonzero;display:inline;overflow:visible;visibility:visible;opacity:1;isolation:auto;mix-blend-mode:normal;color-interpolation:sRGB;color-interpolation-filters:linearRGB;solid-color:#000000;solid-opacity:1;fill:#808080;fill-opacity:1;fill-rule:evenodd;stroke:none;stroke-width:40.79999924;stroke-linecap:round;stroke-linejoin:miter;stroke-miterlimit:4;stroke-dasharray:none;stroke-dashoffset:0;stroke-opacity:1;color-rendering:auto;image-rendering:auto;shape-rendering:auto;text-rendering:auto;enable-background:accumulate"
         inkscape:connector-curvature="0" />
      <path
         id="rect4551-5-7"
         d="m 525.15039,536.17188 -9.15625,5.22265 c -0.81805,4.7916 -0.76152,11.08581 0.18555,14.59375 1.39429,5.16474 3.54354,8.71439 8.9707,14.4336 l 0,-34.25 z m -33.89258,19.33398 -16.82031,9.59375 -0.17969,62.14258 42.84571,-24.05274 c 0.0221,-0.71401 0.0287,-1.51508 0.0312,-2.60742 0.009,-3.69166 -0.14294,-5.31794 -0.64454,-6.94336 -1.6115,-5.22192 -4.57516,-9.57741 -8.13281,-11.95312 -2.31908,-1.54862 -4.20703,-2.19753 -8.74023,-3.00586 -5.45099,-0.97198 -9.3928,-3.844 -10.70703,-7.80078 -0.93964,-2.829 -0.5634,-7.78338 0.90429,-11.90235 0.35425,-0.99418 0.87963,-2.21971 1.44336,-3.4707 z"
         style="color:#000000;clip-rule:nonzero;display:inline;overflow:visible;visibility:visible;opacity:1;isolation:auto;mix-blend-mode:normal;color-interpolation:sRGB;color-interpolation-filters:linearRGB;solid-color:#000000;solid-opacity:1;fill:#646464;fill-opacity:1;fill-rule:evenodd;stroke:none;stroke-width:40.79999924;stroke-linecap:round;stroke-linejoin:miter;stroke-miterlimit:4;stroke-dasharray:none;stroke-dashoffset:0;stroke-opacity:1;color-rendering:auto;image-rendering:auto;shape-rendering:auto;text-rendering:auto;enable-background:accumulate"
         inkscape:connector-curvature="0" />
      <path
         id="rect4551-2-68-8"
         d="m 516.71484,606.33984 -42.27734,24.11719 -0.082,28.52539 c 1.25209,-0.0466 2.6222,-0.39954 4.58008,-1.05469 16.78118,-5.61533 26.56729,-18.38959 36.54492,-47.70117 0.60881,-1.78853 0.99284,-2.92087 1.23437,-3.88672 z m 8.43555,13.41407 c -2.7715,2.75914 -6.79588,7.70735 -11.03711,13.68554 -10.16853,14.33298 -15.89981,28.2411 -14.73633,35.75782 0.48034,3.10323 1.60433,5.31448 3.75782,7.18945 l 22.01562,-12.35938 0,-44.27343 z m -50.83008,51.33398 -0.0625,21.51172 9.08985,-5.10352 c -0.90967,-9.05678 -3.40229,-13.51673 -9.02735,-16.4082 z"
         style="color:#000000;clip-rule:nonzero;display:inline;overflow:visible;visibility:visible;opacity:1;isolation:auto;mix-blend-mode:normal;color-interpolation:sRGB;color-interpolation-filters:linearRGB;solid-color:#000000;solid-opacity:1;fill:#646464;fill-opacity:1;fill-rule:evenodd;stroke:none;stroke-width:40.79999924;stroke-linecap:round;stroke-linejoin:miter;stroke-miterlimit:4;stroke-dasharray:none;stroke-dashoffset:0;stroke-opacity:1;color-rendering:auto;image-rendering:auto;shape-rendering:auto;text-rendering:auto;enable-background:accumulate"
         inkscape:connector-curvature="0" />
      <path
         id="rect4551-2-6-0-2"
         d="M 525.15039,666.70703 505.35352,678 c 0.58897,0.35829 1.21629,0.70932 1.9121,1.05664 2.28269,1.13942 3.02868,1.32814 5.76563,1.45898 3.65155,0.17458 5.53995,-0.32198 8.80078,-2.31445 1.15474,-0.70558 2.60497,-1.58912 3.22461,-1.96484 l 0.0937,-0.0566 0,-9.47266 z m 0,21.77149 c -2.92669,1.0612 -7.57432,3.43711 -14.47656,7.39062 -13.22859,7.57716 -17.92563,9.23322 -22.03516,7.76758 -3.37288,-1.20292 -4.4283,-3.95742 -5.04883,-13.22266 l -9.15234,5.22071 -0.17969,62.14257 50.89258,-28.57031 0,-40.72851 z"
         style="color:#000000;clip-rule:nonzero;display:inline;overflow:visible;visibility:visible;opacity:1;isolation:auto;mix-blend-mode:normal;color-interpolation:sRGB;color-interpolation-filters:linearRGB;solid-color:#000000;solid-opacity:1;fill:#646464;fill-opacity:1;fill-rule:evenodd;stroke:none;stroke-width:40.79999924;stroke-linecap:round;stroke-linejoin:miter;stroke-miterlimit:4;stroke-dasharray:none;stroke-dashoffset:0;stroke-opacity:1;color-rendering:auto;image-rendering:auto;shape-rendering:auto;text-rendering:auto;enable-background:accumulate"
         inkscape:connector-curvature="0" />
    </g>
  </g>
</svg>
